OS.mot
version=1
datacolumns 20
datarows 41
range 0.910000 1.310000
inDegrees=yes
endheader
time	pelvis_tilt	pelvis_list	pelvis_rotation	hip_flexion_r	hip_adduction_r	hip_rotation_r	knee_angle_r	ankle_angle_r	hip_flexion_l	hip_adduction_l	hip_rotation_l	knee_angle_l	ankle_angle_l	pelvis_tx	pelvis_ty	pelvis_tz	lumbar_bending	lumbar_rotation	lumbar_extension
0.910000	14.607042	-5.476109	178.011610	22.647452	-9.491044	-2.429789	-58.189719	-9.142901	23.238294	8.918628	-4.557442	-13.839770	2.788747	1.846801	0.959358	0.034177	0.592071	-5.065375	11.667969
0.920000	14.641251	-4.830669	178.102938	24.577891	-8.729024	-2.725320	-58.723485	-7.785808	22.303295	8.295905	-4.781538	-13.409503	2.830864	1.836582	0.961315	0.034286	0.173589	-4.361193	11.589844
0.930000	14.639621	-4.235729	178.127917	26.364021	-8.003912	-3.006836	-58.804536	-6.529028	21.344678	7.710162	-5.107141	-12.973012	2.862389	1.826444	0.963140	0.034435	-0.184056	-3.698484	11.480942
0.940000	14.595174	-3.702858	178.114025	27.968101	-7.344296	-3.252952	-58.421487	-5.330520	20.358831	7.183169	-5.525432	-12.549776	2.900621	1.816349	0.964817	0.034581	-0.482159	-3.099253	11.346342
0.950000	14.508465	-3.235675	178.106048	29.367041	-6.774957	-3.463590	-57.583260	-4.165068	19.346709	6.731694	-5.996921	-12.149226	2.958043	1.806260	0.966336	0.034673	-0.739446	-2.588598	11.190610
0.960000	14.382382	-2.833668	178.144562	30.551852	-6.311934	-3.645803	-56.317774	-3.042789	18.308379	6.364608	-6.464928	-11.767695	3.040864	1.796138	0.967679	0.034666	-0.992524	-2.187970	11.016479
0.970000	14.220104	-2.494389	178.252685	31.525015	-5.959389	-3.802264	-54.665569	-2.007095	17.240378	6.082498	-6.873658	-11.389153	3.148771	1.785943	0.968820	0.034531	-1.283938	-1.907594	10.826430
0.980000	14.025956	-2.213242	178.432664	32.299222	-5.708570	-3.926730	-52.672901	-1.114614	16.136881	5.878823	-7.184460	-10.990062	3.280022	1.775631	0.969712	0.034262	-1.643768	-1.744090	10.625141
0.990000	13.806355	-1.982620	178.667841	32.897580	-5.538520	-4.004219	-50.386915	-0.408341	14.991950	5.740972	-7.385046	-10.545849	3.438765	1.765162	0.970289	0.033875	-2.077147	-1.683926	10.420107
1.000000	13.568870	-1.791166	178.928931	33.351878	-5.418998	-4.015377	-47.852419	0.100459	13.800729	5.650787	-7.488690	-10.037375	3.640096	1.754512	0.970477	0.033399	-2.563591	-1.708350	10.219832
1.010000	13.320124	-1.623939	179.183723	33.697499	-5.315995	-3.945865	-45.109459	0.430554	12.559655	5.585697	-7.524556	-9.455865	3.910736	1.743676	0.970211	0.032866	-3.066856	-1.797415	10.030494
1.020000	13.063772	-1.465531	179.407753	33.965934	-5.200246	-3.795039	-42.191954	0.613479	11.266220	5.522989	-7.524055	-8.804662	4.281916	1.732669	0.969454	0.032302	-3.549683	-1.933062	9.853459
1.030000	12.799593	-1.306511	179.592277	34.178032	-5.056682	-3.575927	-39.128367	0.675741	9.919269	5.446980	-7.509339	-8.098414	4.774338	1.721510	0.968205	0.031719	-3.985445	-2.099975	9.686413
1.040000	12.524387	-1.149961	179.745846	34.342008	-4.890385	-3.306516	-35.945212	0.633872	8.520576	5.355176	-7.488289	-7.360721	5.381409	1.710219	0.966503	0.031109	-4.362187	-2.284398	9.527801
1.050000	12.234292	-1.012779	179.888503	34.457383	-4.724880	-3.000180	-32.672082	0.503442	7.076327	5.259141	-7.457067	-6.619375	6.061193	1.698806	0.964420	0.030440	-4.680175	-2.473613	9.380987
1.060000	11.927738	-0.918657	180.041094	34.522083	-4.591194	-2.662533	-29.344275	0.311302	5.597034	5.178051	-7.408331	-5.899039	6.745531	1.687271	0.962045	0.029672	-4.946800	-2.656581	9.255270
1.070000	11.607937	-0.887210	180.215226	34.539064	-4.513795	-2.295146	-26.001685	0.098881	4.096282	5.129007	-7.340698	-5.214469	7.362895	1.675606	0.959476	0.028774	-5.172258	-2.823665	9.163609
1.080000	11.284155	-0.927100	180.409264	34.520866	-4.503022	-1.901474	-22.687186	-0.086649	2.590271	5.121347	-7.264193	-4.568213	7.861359	1.663797	0.956802	0.027731	-5.366611	-2.965498	9.117849
1.090000	10.971142	-1.034019	180.610717	34.490098	-4.554262	-1.487362	-19.445789	-0.208351	1.098120	5.155129	-7.198147	-3.953327	8.218479	1.651850	0.954090	0.026550	-5.537178	-3.073144	9.122926
1.100000	10.685669	-1.190225	180.801884	34.473996	-4.648736	-1.053003	-16.323843	-0.253617	-0.359217	5.219732	-7.162112	-3.359562	8.435603	1.639788	0.951384	0.025256	-5.687690	-3.139606	9.174409
1.110000	10.443883	-1.366263	180.967266	34.498688	-4.756983	-0.592094	-13.369838	-0.233336	-1.758409	5.293808	-7.166602	-2.782422	8.532990	1.627653	0.948701	0.023881	-5.820213	-3.159958	9.262678
1.120000	10.262251	-1.526714	181.100158	34.588044	-4.846405	-0.107786	-10.637043	-0.164198	-3.070130	5.349519	-7.210575	-2.232556	8.556180	1.615487	0.946043	0.022463	-5.936059	-3.129102	9.379085
1.130000	10.155098	-1.638881	181.203902	34.760512	-4.889360	0.378387	-8.184603	-0.054705	-4.261480	5.360191	-7.284632	-1.739638	8.572559	1.603317	0.943404	0.021039	-6.033761	-3.039286	9.517684
1.140000	10.126992	-1.680642	181.288464	35.020977	-4.868971	0.838179	-6.074138	0.092132	-5.306762	5.307762	-7.375184	-1.347447	8.645509	1.591152	0.940780	0.019640	-6.108693	-2.879434	9.675331
1.150000	10.169222	-1.643557	181.365491	35.356773	-4.780502	1.249407	-4.363438	0.272769	-6.196195	5.186190	-7.467052	-1.102620	8.810093	1.578972	0.938169	0.018293	-6.157238	-2.637250	9.854131
1.160000	10.264050	-1.530849	181.443315	35.742771	-4.627601	1.597309	-3.100782	0.484447	-6.936590	4.999844	-7.544153	-1.042396	9.070915	1.566725	0.935577	0.017011	-6.180937	-2.303131	10.061677
1.170000	10.392045	-1.352850	181.525928	36.150363	-4.417941	1.871305	-2.319547	0.725015	-7.546165	4.758937	-7.589324	-1.186325	9.411736	1.554340	0.933017	0.015798	-6.186355	-1.873406	10.306821
1.180000	10.537304	-1.122187	181.615658	36.553725	-4.160816	2.065536	-2.030595	0.980634	-8.047694	4.474279	-7.584689	-1.534390	9.797648	1.541740	0.930510	0.014640	-6.181973	-1.352841	10.595505
1.190000	10.688817	-0.849995	181.713211	36.931897	-3.863567	2.183104	-2.213972	1.208379	-8.463109	4.152604	-7.513949	-2.071007	10.170485	1.528861	0.928094	0.013511	-6.174627	-0.756323	10.928625
1.200000	10.839813	-0.544330	181.815471	37.268376	-3.528116	2.236276	-2.814018	1.333763	-8.809335	3.794452	-7.365958	-2.773623	10.455179	1.515664	0.925818	0.012374	-6.167505	-0.105935	11.301180
1.210000	10.987185	-0.210431	181.916071	37.549819	-3.151971	2.238953	-3.741257	1.272157	-9.094466	3.395523	-7.136423	-3.623061	10.584127	1.502136	0.923746	0.011183	-6.160465	0.576021	11.702793
1.220000	11.130360	0.148132	182.007829	37.764771	-2.732588	2.199333	-4.883370	0.956197	-9.316465	2.950427	-6.828118	-4.610705	10.516720	1.488282	0.921942	0.009901	-6.151443	1.271523	12.119537
1.230000	11.268745	0.527253	182.084059	37.902750	-2.271815	2.120019	-6.124045	0.351193	-9.465620	2.457162	-6.451606	-5.740130	10.233902	1.474121	0.920465	0.008503	-6.137374	1.966607	12.535878
1.240000	11.399851	0.920841	182.139090	37.954682	-1.777962	2.001708	-7.363901	-0.535004	-9.528020	1.918703	-6.023882	-7.025199	9.721974	1.459686	0.919363	0.006981	-6.114372	2.649309	12.935500
1.250000	11.520004	1.322105	182.168104	37.915122	-1.263745	1.845944	-8.536052	-1.643163	-9.487361	1.340143	-5.564201	-8.485997	8.961535	1.445015	0.918677	0.005341	-6.078423	3.307736	13.301307
1.260000	11.626634	1.725584	182.166904	37.784663	-0.742498	1.657152	-9.610736	-2.862963	-9.325228	0.725284	-5.089549	-10.143674	7.923825	1.430147	0.918437	0.003607	-6.026055	3.928832	13.615859
1.270000	11.720131	2.126735	182.133350	37.570954	-0.226747	1.444315	-10.589382	-4.048220	-9.020870	0.076767	-4.610573	-12.016342	6.573860	1.415119	0.918666	0.001808	-5.954656	4.498716	13.864511
1.280000	11.804381	2.519927	182.069309	37.288248	0.272047	1.221676	-11.493128	-5.046318	-8.551591	-0.601107	-4.128785	-14.116997	4.881325	1.399981	0.919367	-0.000026	-5.863200	5.004923	14.041713
1.290000	11.886128	2.898814	181.982387	36.955423	0.745384	1.006238	-12.350660	-5.732799	-7.894094	-1.301352	-3.638263	-16.453619	2.840781	1.384793	0.920522	-0.001871	-5.751194	5.438450	14.153296
1.300000	11.972612	3.259527	181.887245	36.591944	1.189914	0.811737	-13.188409	-6.039221	-7.026944	-2.015882	-3.134688	-19.030586	0.489807	1.369627	0.922085	-0.003711	-5.616180	5.793999	14.210367
1.310000	12.067949	3.603677	181.802752	36.212898	1.609666	0.644100	-14.024591	-5.963479	-5.934549	-2.737400	-2.624656	-21.849584	-2.086541	1.354565	0.923986	-0.005525	-5.453129	6.069291	14.223062
